<?xml version="1.0" encoding="utf-8"?>
<!-- Generator: Adobe Illustrator 19.0.0, SVG Export Plug-In . SVG Version: 6.00 Build 0)  -->
<svg version="1.1" id="logo" xmlns="http://www.w3.org/2000/svg" xmlns:xlink="http://www.w3.org/1999/xlink" x="0px" y="0px"
	 viewBox="297 99 296 417" style="enable-background:new 297 99 296 417;" xml:space="preserve">

<defs>
		<style type="text/css">
			.st0{fill:none;stroke:#FFFFFF;stroke-width:8;stroke-miterlimit:10;}
			.st0{
				stroke-dasharray: 2000;
				stroke-dashoffset: 0;
				<!-- change the below line of codes to support in all types of browser -->
				-webkit-animation: dash 5s linear infinite alternate;
				
			}
			@-webkit-keyframes dash{
				from{
					stroke-dashoffset: 2000;
				}
				to{
					stroke-dashoffset: 0;
				}
			}
		</style>
</defs>


<title>Instruo Logo</title>
<path class="st0" d="M486.8,452h-18.5c-4.8,0-8.7-3.9-8.7-8.7V316.5c0-4.8,3.9-8.7,8.7-8.7h7.2c1.7,0,3.2-1.4,3.2-3.1
	c0-0.7-0.2-1.3-0.6-1.9l-10.9-15.6c-0.6-0.8-1.6-1.3-2.6-1.4h-41.1c-5.2,0-9.4-4.2-9.4-9.5c0-1.9,0.6-3.8,1.7-5.4l10.5-15.7
	c1.8-2.6,4.7-4.1,7.8-4.1h12.5c5.9-0.1,10.8,4.4,11.2,10.3c0.2,3-0.9,6-3,8.2c-2.1,2.2-4.9,3.4-8,3.4c-1.7,0-3.1-1.4-3.1-3.1
	c0-1.7,1.4-3.1,3.1-3.1c2.6,0,4.6-2.1,4.6-4.6c0-0.1,0-0.2,0-0.3c-0.3-2.5-2.4-4.4-4.9-4.3h-12.5c-1,0-2,0.5-2.6,1.4L421,274.6
	c-1,1.4-0.7,3.4,0.7,4.4c0.5,0.4,1.2,0.6,1.9,0.6h41.1c3.1,0,6,1.5,7.8,4l10.9,15.6c3,4.3,1.9,10.2-2.4,13.2
	c-1.6,1.1-3.5,1.7-5.4,1.7h-7.2c-1.3,0-2.4,1.1-2.4,2.4v126.9c0,1.3,1.1,2.4,2.4,2.4h18.5c1.7,0,3.1-1.4,3.1-3.1v-26.2
	c0.8-25.5,12.8-49.3,32.9-65c0.5-0.4,1.1-0.9,1.6-1.3c31.8-24.6,50.4-62.5,50.6-102.7c0.2-35.1-13.6-68.3-39-93.5
	c-24.9-24.7-57.6-38.3-92.1-38.3h-1.7C371,116.6,313,175.4,313,246.7c0,1.7-1.4,3.2-3.1,3.2c-1.7,0-3.1-1.4-3.1-3.2
	c0-75.1,60.4-136.3,135.5-137.3h1.8c36.2,0,70.4,14.2,96.5,40.1c26.5,26.3,41,61.1,40.8,98c-0.1,42.2-19.7,81.9-53.1,107.7l-0.1,0.1
	c-0.5,0.4-1,0.7-1.5,1.1c-18.6,14.5-29.8,36.6-30.5,60.2v26.1C496.2,447.8,492,452,486.8,452z"/>
<path class="st0" d="M456.4,502.4h-27.1c-1.7,0-3.1-1.4-3.1-3.2c0-1.7,1.4-3.1,3.1-3.1h27.1c1.7,0,3.1-1.4,3.1-3.2
	c0-1.7-1.4-3.1-3.1-3.1h-56.1c-5.2,0-9.5-4.2-9.5-9.5c0-5.2,4.2-9.5,9.5-9.5h86.4c1.7,0,3.1-1.4,3.1-3.2c0-1.7-1.4-3.1-3.1-3.1
	h-86.7c-5.1,0-9.2-4.1-9.2-9.2c0-0.1,0-0.3,0-0.4c0.2-5.2,4.5-9.3,9.7-9.3l22.5,0.2l0,0c1.7,0,3.1-1.4,3.1-3.1V316.5
	c0-1.3-1.1-2.4-2.4-2.4h-12.1c-4.7,0-8.4-3.8-8.4-8.4c0-2,0.7-3.9,2-5.5l4.4-5.1c1.1-1.3,3.1-1.5,4.4-0.4c1.3,1.1,1.5,3.1,0.4,4.4
	c0,0-0.1,0.1-0.1,0.1l-4.4,5.1c-0.8,0.9-0.7,2.2,0.2,3c0.4,0.3,0.9,0.5,1.4,0.5h12.2c4.8,0,8.7,3.9,8.7,8.7v126.4
	c0,5.2-4.2,9.4-9.5,9.5H423l-22.5-0.2l0,0c-1.8,0-3.2,1.4-3.3,3.2c-0.1,1.6,1.1,3,2.7,3.1c0.1,0,0.1,0,0.2,0h86.7
	c5.2,0,9.5,4.2,9.5,9.5c0,5.2-4.2,9.5-9.5,9.5h-86.4c-1.7,0-3.1,1.4-3.1,3.2c0,1.7,1.4,3.1,3.1,3.1h56.1c5.2,0,9.5,4.2,9.5,9.5
	C465.9,498.2,461.6,502.4,456.4,502.4L456.4,502.4z"/>
<path d="M255.9,606.2c-0.7-0.7-1-1.7-1-2.7V547c0-1,0.3-2,1-2.7c1.5-1.4,3.9-1.4,5.4,0c0.7,0.7,1,1.7,1,2.7v56.5c0,1-0.3,2-1,2.7
	C259.8,607.6,257.5,607.6,255.9,606.2L255.9,606.2z"/>
<path d="M327.6,544.2c0.6,0.8,0.9,1.7,0.9,2.7v56.5c0,1-0.3,2-0.9,2.7c-0.7,0.7-1.7,1.1-2.6,1c-1.2,0-2.3-0.6-3-1.5L284.8,556v47.5
	c0,1-0.3,2-0.9,2.7c-0.7,0.7-1.6,1.1-2.6,1c-0.9,0.1-1.9-0.3-2.5-1c-0.6-0.8-0.9-1.7-0.9-2.7V547c0-1,0.3-2,0.9-2.7
	c0.7-0.7,1.7-1.1,2.6-1c1.2,0,2.3,0.6,3,1.5l37.1,49.7V547c0-1,0.3-2,0.9-2.7c0.7-0.7,1.6-1.1,2.6-1
	C326,543.2,326.9,543.5,327.6,544.2z"/>
<path d="M351.4,605.5c-3.6-1.1-7-2.9-9.8-5.4c-0.9-0.8-1.4-1.9-1.3-3.1c0-0.8,0.2-1.6,0.7-2.2c0.4-0.6,1-0.9,1.7-0.9
	c0.9,0.1,1.8,0.4,2.5,1c5.4,4.3,12.1,6.5,19,6.5c5.1,0,9.1-1,11.8-3c2.7-1.9,4.3-5.1,4.1-8.4c0.1-1.9-0.7-3.7-2-5.1
	c-1.5-1.4-3.3-2.4-5.2-3.1c-2.8-1-5.7-1.8-8.7-2.4c-4.1-0.9-8.1-2.1-12-3.6c-2.9-1.1-5.6-3-7.6-5.4c-2-2.6-3.1-5.8-2.9-9.1
	c-0.1-3.4,1-6.7,2.9-9.5c2.1-2.9,4.9-5.1,8.1-6.5c3.8-1.6,7.9-2.4,12-2.3c4,0,7.9,0.6,11.7,1.9c3.4,1.2,6.5,3,9.1,5.5
	c0.9,0.8,1.4,1.9,1.4,3.1c0,0.8-0.2,1.6-0.7,2.2c-0.4,0.6-1,0.9-1.7,0.9c-0.9-0.1-1.8-0.4-2.6-1c-2.4-2.1-5.2-3.8-8.1-5
	c-2.9-1-5.9-1.5-9-1.4c-5,0-8.8,1-11.6,3.1c-2.8,2-4.4,5.3-4.2,8.7c-0.2,2.9,1.2,5.6,3.6,7.1c2.4,1.6,6.1,3,11.1,4.2
	c5.4,1.3,9.7,2.5,12.8,3.6c3,1,5.6,2.7,7.8,5c2.1,2.4,3.3,5.6,3.1,8.9c0.1,3.3-1,6.6-2.9,9.3c-2.1,2.8-4.9,5-8.2,6.3
	c-3.8,1.6-8,2.3-12.1,2.2C359.9,607.6,355.5,606.9,351.4,605.5z"/>
<path d="M414.3,606.2c-0.7-0.7-1.1-1.7-1-2.7v-53.6H394c-0.9,0.1-1.8-0.2-2.5-0.8c-1.2-1.3-1.2-3.3,0-4.7c0.7-0.6,1.6-0.9,2.5-0.8
	h46c0.9-0.1,1.8,0.2,2.5,0.8c1.2,1.3,1.2,3.3,0,4.7c-0.7,0.6-1.6,0.9-2.5,0.8h-19.3v53.6c0,1-0.3,2-1,2.7c-0.7,0.7-1.7,1.1-2.7,1
	C416,607.3,415,606.9,414.3,606.2z"/>
<path d="M500.4,604.3c0,0.8-0.3,1.7-1,2.2c-1.6,1.3-4,1.1-5.3-0.5c-0.1-0.1-0.2-0.3-0.3-0.4l-12-19c-1.2-2.1-2.8-3.8-4.8-5.1
	c-2.1-1-4.5-1.5-6.8-1.4h-11.3v23.4c0,1-0.3,2-1,2.7c-0.7,0.7-1.6,1-2.6,1c-1,0.1-2-0.3-2.7-1c-0.7-0.7-1-1.7-1-2.7v-56.3
	c0-1,0.3-1.9,1-2.6c0.7-0.7,1.7-1,2.7-1h22.2c6.9,0,12.1,1.5,15.7,4.6c3.6,3,5.4,7.5,5.4,13.4c0,5-1.4,9-4.3,12.1
	c-2.9,3-7,4.9-12.4,5.5c1.5,0.5,2.8,1.3,4,2.3c1.4,1.3,2.6,2.8,3.6,4.5l10.2,16.1C500.1,602.8,500.4,603.6,500.4,604.3z M476.9,574
	c4.9,0,8.6-1,11-3s3.7-5.1,3.6-9.2c0-4.1-1.2-7.1-3.6-9s-6.1-2.9-11-3h-18.1V574H476.9z"/>
<path d="M518.9,601.1c-4.2-4.3-6.4-10.6-6.4-19V547c0-1,0.3-2,1-2.7c0.7-0.7,1.7-1.1,2.7-1c1,0,1.9,0.3,2.6,1c0.7,0.7,1,1.7,1,2.7
	v35.7c0,6.2,1.5,10.8,4.5,13.9s7.4,4.7,13.3,4.7c5.9,0,10.3-1.6,13.3-4.7s4.5-7.7,4.5-13.9V547c-0.1-1,0.3-2,1-2.7
	c1.5-1.4,3.8-1.4,5.3,0c0.7,0.7,1,1.7,1,2.7v35.1c0,8.3-2.1,14.6-6.4,19c-4.3,4.3-10.5,6.5-18.7,6.5
	C529.4,607.5,523.2,605.4,518.9,601.1z"/>
<path d="M589,603.6c-4.4-2.7-7.8-6.6-10-11.2c-2.4-5.4-3.6-11.2-3.5-17.1c-0.1-5.9,1.1-11.9,3.5-17.3c2.1-4.7,5.6-8.6,9.9-11.2
	c9.6-5.2,21.1-5.2,30.7,0c4.4,2.6,7.8,6.5,9.9,11.2c2.4,5.4,3.6,11.2,3.5,17.2c0.1,5.9-1.1,11.8-3.5,17.2c-2.1,4.7-5.6,8.6-10,11.2
	C610.1,608.8,598.5,608.8,589,603.6L589,603.6z M619.9,594.5c3.7-4.5,5.6-10.9,5.6-19.3s-1.8-14.8-5.5-19.3
	c-3.7-4.5-8.9-6.7-15.7-6.7c-6.8,0-12,2.3-15.7,6.8c-3.7,4.5-5.6,10.9-5.6,19.2c0,8.3,1.9,14.7,5.6,19.3c3.7,4.5,8.9,6.8,15.6,6.8
	C611,601.3,616.2,599,619.9,594.5L619.9,594.5z"/>
</svg>